<?xml version="1.0" encoding="UTF-8" standalone="no"?>
<!-- Created with Inkscape (http://www.inkscape.org/) -->

<svg
   xmlns:dc="http://purl.org/dc/elements/1.1/"
   xmlns:cc="http://creativecommons.org/ns#"
   xmlns:rdf="http://www.w3.org/1999/02/22-rdf-syntax-ns#"
   xmlns:svg="http://www.w3.org/2000/svg"
   xmlns="http://www.w3.org/2000/svg"
   xmlns:sodipodi="http://sodipodi.sourceforge.net/DTD/sodipodi-0.dtd"
   xmlns:inkscape="http://www.inkscape.org/namespaces/inkscape"
   width="81.484207mm"
   height="121.8422mm"
   viewBox="0 0 81.484209 121.84222"
   version="1.1"
   id="svg8"
   inkscape:version="0.92.4 (5da689c313, 2019-01-14)"
   sodipodi:docname="marker.svg">
  <defs
     id="defs2" />
  <sodipodi:namedview
     id="base"
     pagecolor="#ffffff"
     bordercolor="#666666"
     borderopacity="1.0"
     inkscape:pageopacity="0.0"
     inkscape:pageshadow="2"
     inkscape:zoom="1.3065377"
     inkscape:cx="136.04451"
     inkscape:cy="326.12425"
     inkscape:document-units="mm"
     inkscape:current-layer="layer1"
     showgrid="false"
     fit-margin-top="0"
     fit-margin-left="0"
     fit-margin-right="-40"
     fit-margin-bottom="-11"
     inkscape:window-width="1600"
     inkscape:window-height="846"
     inkscape:window-x="0"
     inkscape:window-y="0"
     inkscape:window-maximized="1" />
  <metadata
     id="metadata5">
    <rdf:RDF>
      <cc:Work
         rdf:about="">
        <dc:format>image/svg+xml</dc:format>
        <dc:type
           rdf:resource="http://purl.org/dc/dcmitype/StillImage" />
        <dc:title />
      </cc:Work>
    </rdf:RDF>
  </metadata>
  <g
     inkscape:label="Layer 1"
     inkscape:groupmode="layer"
     id="layer1"
     transform="translate(-44.704021,-85.312252)">
    <ellipse
       style="fill:#ffffff;fill-opacity:1;stroke:#000000;stroke-width:0.26458332;stroke-opacity:1"
       id="path821"
       cx="84.518021"
       cy="124.07345"
       rx="37.565086"
       ry="37.261326" />
    <path
       style="fill:#008044;fill-opacity:1;stroke-width:0.26458335"
       d="m 133.66415,210.63131 c -0.0817,-0.31256 -0.0355,-0.56829 0.1028,-0.56829 0.13828,0 0.23209,-0.14883 0.20846,-0.33073 -0.0236,-0.1819 -0.027,-0.50932 -0.008,-0.7276 0.0315,-0.35278 0.0644,-0.35278 0.29593,0 0.21323,0.32482 0.30189,0.3328 0.4883,0.044 0.18434,-0.28562 0.2578,-0.27463 0.38532,0.0577 0.0867,0.22583 0.031,0.48882 -0.12372,0.58443 -0.18699,0.11557 -0.16095,0.25008 0.0777,0.40129 0.23405,0.1483 0.25063,0.22887 0.0477,0.23152 -0.17123,0.002 -0.36578,0.21241 -0.43233,0.46707 -0.1048,0.40101 -0.12511,0.39424 -0.15169,-0.0506 -0.0296,-0.49528 -0.0434,-0.49624 -0.38648,-0.027 -0.34038,0.4655 -0.36222,0.46196 -0.50439,-0.0817 z m 2.06173,0.15932 c -0.0576,-0.1819 -0.0837,-0.68792 -0.0578,-1.12448 0.0355,-0.60034 0.17522,-0.79375 0.57349,-0.79375 0.37499,0 0.57021,0.22848 0.67818,0.79375 0.20046,1.04946 0.0388,1.45521 -0.57991,1.45521 -0.28004,0 -0.5563,-0.14883 -0.61392,-0.33073 z m 0.678,-0.54139 c -0.33959,-0.33959 -0.68396,-0.0771 -0.43255,0.32966 0.0974,0.15758 0.29828,0.21159 0.44642,0.12003 0.18071,-0.11168 0.17615,-0.25968 -0.0139,-0.44969 z m 0.0935,-0.6971 c 0.0837,-0.13547 0.0312,-0.32109 -0.11668,-0.41249 -0.14789,-0.0914 -0.2689,0.0194 -0.2689,0.2463 0,0.46475 0.15877,0.53318 0.38558,0.16619 z m 1.0416,1.19469 c -0.079,-0.20599 -0.10508,-0.712 -0.0579,-1.12448 0.0622,-0.54342 0.24983,-0.77324 0.68119,-0.8345 0.32742,-0.0465 0.59532,0.0498 0.59532,0.21405 0,0.16423 -0.11084,0.2301 -0.24631,0.14638 -0.13546,-0.0837 -0.32108,-0.0312 -0.41249,0.11668 -0.0914,0.14789 -0.0235,0.2689 0.15099,0.2689 0.17445,0 0.45857,0.19336 0.63138,0.42969 0.27542,0.37667 0.35646,0.32769 0.65658,-0.39687 0.45543,-1.09951 0.98787,-1.05066 1.12256,0.103 0.11455,0.98122 -0.23602,1.87841 -0.4897,1.25324 -0.15988,-0.39403 -1.31218,-0.44335 -1.54531,-0.0661 -0.24119,0.39025 -0.92082,0.32147 -1.08636,-0.10994 z m 0.83336,-0.66507 c -0.26015,-0.42093 -0.67916,-0.078 -0.49406,0.40439 0.1018,0.26529 0.24582,0.31624 0.41518,0.14688 0.14263,-0.14263 0.17812,-0.3907 0.0789,-0.55127 z m 1.70821,-0.15103 c 0,-0.21828 -0.0468,-0.39687 -0.10398,-0.39687 -0.0572,0 -0.17252,0.17859 -0.25628,0.39687 -0.0838,0.21828 -0.037,0.39688 0.10398,0.39688 0.14096,0 0.25628,-0.1786 0.25628,-0.39688 z m 1.2768,0.57826 c 0.66846,-0.71155 0.7828,-1.56732 0.17841,-1.3354 -0.21828,0.0838 -0.39687,0.0205 -0.39687,-0.14059 0,-0.46034 1.0561,-0.342 1.24068,0.13903 0.0912,0.23756 0.0279,0.65266 -0.14059,0.92245 -0.4013,0.64258 -0.39037,0.70153 0.15668,0.84449 0.25466,0.0666 -0.004,0.13481 -0.57529,0.15169 l -1.03831,0.0307 z m 1.62703,-0.0664 c -0.50789,-1.33585 0.70796,-2.33467 1.35966,-1.11696 l 0.31335,0.58551 0.2166,-0.58551 c 0.27454,-0.74216 0.91892,-0.75341 1.30989,-0.0229 0.21858,0.40841 0.22268,0.73477 0.015,1.19062 -0.35966,0.78937 -1.04051,0.8112 -1.32488,0.0425 l -0.21659,-0.58551 -0.31336,0.58551 c -0.41926,0.78341 -1.0426,0.74065 -1.35965,-0.0933 z m 1.02118,-0.67977 c -0.0487,-0.34421 -0.20761,-0.60235 -0.35313,-0.57366 -0.33932,0.0669 -0.48884,0.78176 -0.27829,1.33045 0.23909,0.62305 0.74146,0.0209 0.63142,-0.75679 z m 1.85208,0 c -0.0487,-0.34421 -0.20761,-0.60235 -0.35313,-0.57366 -0.33931,0.0669 -0.48884,0.78176 -0.27829,1.33045 0.23909,0.62305 0.74146,0.0209 0.63142,-0.75679 z m 1.05596,0.74618 c 0.66846,-0.71155 0.7828,-1.56732 0.17841,-1.3354 -0.21828,0.0838 -0.39687,0.0205 -0.39687,-0.14059 0,-0.46034 1.0561,-0.342 1.24068,0.13903 0.0912,0.23756 0.0279,0.65266 -0.14059,0.92245 -0.4013,0.64258 -0.39037,0.70153 0.15668,0.84449 0.25466,0.0666 -0.004,0.13481 -0.57529,0.15169 l -1.03831,0.0307 z m 1.77683,0.28164 c -0.0576,-0.1819 -0.0837,-0.68792 -0.0578,-1.12448 0.0355,-0.60034 0.17523,-0.79375 0.57349,-0.79375 0.37499,0 0.57021,0.22848 0.67818,0.79375 0.20046,1.04946 0.0388,1.45521 -0.5799,1.45521 -0.28004,0 -0.55631,-0.14883 -0.61393,-0.33073 z m 0.678,-0.54139 c -0.33959,-0.33959 -0.68396,-0.0771 -0.43255,0.32966 0.0974,0.15758 0.29828,0.21159 0.44642,0.12003 0.18072,-0.11168 0.17615,-0.25968 -0.0139,-0.44969 z m 0.0935,-0.6971 c 0.0837,-0.13547 0.0312,-0.32109 -0.11668,-0.41249 -0.14789,-0.0914 -0.26889,0.0194 -0.26889,0.2463 0,0.46475 0.15876,0.53318 0.38557,0.16619 z m -66.658671,-6.4394 c -1.443358,-2.5075 -4.548479,-7.89284 -6.900265,-11.96743 -2.351788,-4.07458 -9.179285,-15.9045 -15.172214,-26.2887 -5.992929,-10.3842 -11.374533,-19.83165 -11.959119,-20.99434 -3.037987,-6.04225 -4.530841,-13.91482 -3.940654,-20.78102 0.510253,-5.93624 1.683927,-10.16766 4.241932,-15.29336 3.812077,-7.63858 10.338719,-14.177251 18.060493,-18.093775 9.730479,-4.93535 20.877198,-5.730472 31.388541,-2.239019 13.940747,4.630562 24.426947,16.770644 27.173237,31.458974 0.72788,3.89304 0.6707,11.44073 -0.11439,15.09835 -1.14309,5.32553 -2.59642,8.86383 -6.18749,15.06414 -1.85871,3.20923 -25.981917,44.99956 -31.233113,54.1073 -1.30048,2.25557 -2.447348,4.1881 -2.548591,4.29451 -0.101246,0.1064 -1.365009,-1.85813 -2.808367,-4.36563 z m 8.593934,-43.21464 c 13.884777,-2.21337 25.457417,-13.71288 27.900847,-27.72454 0.52397,-3.00466 0.53143,-8.91949 0.015,-11.881 -1.20862,-6.93071 -4.54068,-13.35093 -9.51282,-18.3293 C 104.9104,97.067307 99.109293,93.932165 92.129623,92.413401 89.374958,91.81399 82.129856,91.74518 79.358669,92.292109 65.426091,95.041881 54.828716,105.43602 51.811532,119.31095 c -0.683152,3.14157 -0.691404,10.32597 -0.0155,13.49375 0.979115,4.58882 2.655269,8.58042 5.201738,12.38744 7.571311,11.31923 20.628383,16.90121 34.399433,14.70597 z m -6.746878,-7.90887 c -0.145521,-0.0485 -0.597569,-0.16187 -1.004551,-0.25183 -1.092121,-0.24143 -2.982093,-2.20255 -3.329255,-3.45459 -0.161398,-0.58208 -0.292584,-1.89177 -0.291523,-2.91041 0.0024,-2.31195 0.719817,-3.93903 2.317086,-5.25515 2.394058,-1.97265 6.513624,-1.48168 7.998211,0.95325 0.65077,1.06734 0.67639,1.7825 0.0647,1.80658 -0.25466,0.01 -0.785175,0.0609 -1.17892,0.113 -0.515273,0.0682 -0.759145,-0.0415 -0.870215,-0.39144 -0.375882,-1.1843 -2.314683,-1.77357 -3.834532,-1.16545 -1.32915,0.53182 -1.541264,0.9155 -1.845463,3.33815 -0.204616,1.62957 -0.16914,2.08391 0.232796,2.98158 0.260808,0.58248 0.699841,1.25143 0.97563,1.48654 1.343824,1.14565 3.482303,0.67186 4.25191,-0.94202 0.248814,-0.52177 0.644816,-0.94067 0.889254,-0.94067 0.599868,0 2.1079,0.54007 2.10396,0.75349 -0.008,0.42891 -1.403899,2.56408 -1.919022,2.93517 -1.182375,0.85177 -3.437064,1.31842 -4.560086,0.9438 z m -9.315027,-6.48454 0.02772,-6.35 h 1.243401 1.243404 l 0.01381,6.35 0.01381,6.35 h -1.284941 -1.284941 l 0.02772,-6.35 z m 17.913985,0 v -6.35 h 1.19063 1.19062 v 6.35 6.35 h -1.19062 -1.19063 z M 63.458208,134.5536 c -0.0644,-0.16783 -0.08503,-3.04101 -0.04583,-6.38484 l 0.07127,-6.07969 4.696354,-0.0723 4.696355,-0.0722 v 1.06444 1.06444 H 69.436833 65.99725 v 1.45521 1.4552 h 3.307292 3.307291 v 1.05834 1.05833 H 69.304542 65.99725 v 1.71979 1.71979 H 69.569125 73.141 v 1.17299 1.17298 l -4.782817,-0.0136 c -3.357119,-0.01 -4.817724,-0.10463 -4.899915,-0.31882 z m 14.843353,0.14852 c -0.07345,-0.0734 -0.133538,-2.49494 -0.133538,-5.3811 v -5.24757 H 76.31594 74.463857 v -1.05834 -1.05833 h 5.027083 5.027084 v 1.05833 1.05834 H 82.66594 80.813857 v 5.42609 5.4261 l -1.189379,-0.045 c -0.654158,-0.0247 -1.249471,-0.10508 -1.322917,-0.17853 z m 8.068546,-6.26768 v -6.47766 h 4.762496 4.7625 v 1.05065 1.05066 l -3.50572,0.0738 -3.505734,0.0738 -0.07997,1.38906 -0.07997,1.38906 h 3.321124 3.32112 v 1.05019 1.05019 l -3.24115,0.0743 -3.241148,0.0743 -0.07858,1.6461 -0.07857,1.6461 3.650448,0.0737 3.65046,0.0737 v 1.05833 1.05833 l -4.82865,0.0615 -4.82865,0.0615 z m 13.890623,6.11343 c -1.073827,-0.47727 -1.957617,-1.48396 -2.379087,-2.70994 -0.41218,-1.19894 -0.22944,-1.40437 1.25461,-1.41043 0.6904,-0.003 0.992187,0.11218 0.992187,0.37807 0,0.84463 1.17887,1.78371 2.38998,1.90382 1.42774,0.1416 2.40369,-0.31486 2.74437,-1.28357 0.34484,-0.98055 -0.11867,-1.44829 -1.92782,-1.94541 -3.904597,-1.07293 -5.036347,-1.9085 -5.235637,-3.8655 -0.24037,-2.36037 1.44922,-3.75928 4.542647,-3.76113 2.85623,-0.002 4.39196,0.96229 4.80241,3.01455 l 0.15853,0.79262 h -1.29325 c -1.08647,0 -1.33501,-0.095 -1.55443,-0.59414 -0.56955,-1.29565 -2.94163,-1.59539 -3.9354,-0.49729 -0.882197,0.97483 -0.11662,1.51526 3.59048,2.53458 0.82707,0.22742 1.86662,0.71881 2.31011,1.09198 2.12163,1.78523 1.34245,5.41386 -1.3837,6.44387 -1.03227,0.39002 -4.11721,0.33406 -5.076,-0.0921 z m -34.607356,-13.9838 c 1.417846,-2.24061 1.493819,-2.30489 2.725126,-2.30556 1.121587,-5.3e-4 1.241062,0.0721 2.060466,1.25349 l 0.869842,1.25415 -0.86514,0.0875 c -0.673317,0.0681 -1.000083,-0.0694 -1.473753,-0.62006 l -0.608613,-0.70755 -0.539771,0.68621 c -0.396052,0.50349 -0.784728,0.6862 -1.459757,0.6862 -0.676555,0 -0.863999,-0.0885 -0.7084,-0.33437 z m 11.853251,-2.80911 c -3.207295,-0.83873 -4.870982,-3.49078 -4.566827,-7.27991 0.218826,-2.72612 1.617051,-4.74005 3.788431,-5.45667 0.530423,-0.17506 1.819645,-0.27146 2.900463,-0.21688 1.643211,0.083 2.120752,0.22133 3.072323,0.89012 2.179463,1.53179 3.123557,4.84098 2.244143,7.86606 -0.507185,1.74465 -1.426549,2.93167 -2.822025,3.64359 -1.146603,0.58495 -3.443504,0.86043 -4.616508,0.55369 z m 3.315952,-2.54954 c 1.183166,-0.61184 1.697167,-1.81245 1.697167,-3.96427 0,-2.22322 -0.50028,-3.31617 -1.800305,-3.93307 -1.160264,-0.55058 -2.096632,-0.54761 -3.272538,0.0104 -2.423226,1.14989 -2.577648,6.3554 -0.230982,7.78637 0.989674,0.60349 2.549983,0.647 3.606658,0.10057 z m 9.853696,2.54118 c -1.202713,-0.30756 -2.130514,-0.97217 -2.730248,-1.95576 -0.463764,-0.7606 -0.515646,-1.35709 -0.516535,-5.93875 l -9.9e-4,-5.09323 h 1.173925 1.173922 l 0.08285,4.78598 0.08285,4.78598 0.742356,0.63798 c 1.0132,0.87074 2.76825,0.88664 3.57081,0.0323 0.53226,-0.56656 0.57363,-0.91216 0.64144,-5.35781 l 0.0725,-4.75219 1.27682,-0.0815 1.27681,-0.0815 -0.0862,5.28834 c -0.0797,4.88857 -0.12828,5.34475 -0.64301,6.03459 -0.30625,0.41043 -0.91228,0.95444 -1.34673,1.2089 -0.91588,0.53644 -3.53204,0.80326 -4.77055,0.48655 z m 12.627227,0.006 c -1.25827,-0.26645 -1.93733,-0.66601 -2.72717,-1.60469 -0.605377,-0.71944 -1.176747,-2.282 -0.926097,-2.53265 0.0557,-0.0557 0.595347,-0.18026 1.199227,-0.27683 1.06659,-0.17055 1.10916,-0.14881 1.48903,0.76034 0.47775,1.14343 1.10795,1.50767 2.60853,1.50767 1.47689,0 2.32523,-0.58243 2.32523,-1.5964 0,-0.94576 -0.64206,-1.39454 -2.64584,-1.84932 -3.15194,-0.71538 -4.49791,-1.90117 -4.49791,-3.96261 0,-2.31291 1.53691,-3.43958 4.69198,-3.43958 2.36689,0 3.43711,0.55421 4.27099,2.21173 0.34573,0.68722 0.58385,1.28737 0.52916,1.33368 -0.0547,0.0463 -0.6352,0.15099 -1.29005,0.23262 -1.11711,0.13924 -1.22353,0.0966 -1.72354,-0.69034 -0.45729,-0.71972 -0.70945,-0.85013 -1.77693,-0.91901 -1.45114,-0.0936 -2.32036,0.28454 -2.32036,1.00953 0,0.70066 0.79204,1.14771 3.4473,1.94574 2.89139,0.86901 3.73533,1.66343 3.8962,3.66759 0.19366,2.41264 -1.36284,4.00486 -4.1685,4.26415 -0.80037,0.074 -1.87193,0.0462 -2.38125,-0.0616 z m -39.579164,-2.87373 c -0.554159,-1.56435 -1.563116,-4.39208 -2.242127,-6.28385 -0.679011,-1.89177 -1.147704,-3.53652 -1.041543,-3.65499 0.106162,-0.11848 0.715214,-0.17801 1.35345,-0.13229 l 1.160425,0.0831 1.552139,4.57737 c 0.853675,2.51756 1.627582,4.50342 1.719792,4.41303 0.09221,-0.0904 0.829246,-2.15022 1.637858,-4.57738 l 1.470205,-4.41302 h 1.241774 c 0.682977,0 1.255892,0.0943 1.273146,0.20961 0.01725,0.11529 -0.963771,3.00256 -2.180056,6.41615 l -2.21143,6.20653 h -1.363035 -1.363035 z"
       id="path826"
       inkscape:connector-curvature="0" />
  </g>
</svg>
